# xmcd CD database file
#
# Track frame offsets:
#	150
#	13763
#	45616
#	61043
#	93233
#	106647
#	136290
#	164699
#	203844
#	217611
#
# Disc length: 3079 seconds
#
# Revision: 0
# Processed by: cddbd v1.5.2PL0 Copyright (c) Steve Scherf et al.
# Submitted via: CDex 1.70beta2
#
DISCID=790c050a
DTITLE=Various Artist - Jazz Cats
DYEAR=1900
DGENRE=Jazz
TTITLE0=Coleman Hawkins - Body and Soul
TTITLE1=John Coltrane - Naima
TTITLE2=Lester Young - On the Sunny Side of the Street
TTITLE3=Dexter Gordon - Doxy
TTITLE4=Zoot Sims - Night and Day
TTITLE5=Rahsaan Roland Kirk - My Little Suede Shoes - Groovin' High
TTITLE6=Al Cohn - America the Beautiful
TTITLE7=Archie Shepp - Steam
TTITLE8=Ben Webster - Tenderly
TTITLE9=Charlie Parker - Ornithology
EXTD=
EXTT0=
EXTT1=
EXTT2=
EXTT3=
EXTT4=
EXTT5=
EXTT6=
EXTT7=
EXTT8=
EXTT9=
PLAYORDER=
